<svg xmlns="http://www.w3.org/2000/svg" width="70" height="98" viewBox="0 0 25 34"><g fill="#FFFFFE" fill-rule="evenodd"><path d="M6.824 18.536a.451.451 0 1 0 .902 0 .451.451 0 0 0-.902 0zm11.297 0a.452.452 0 1 0-.904 0 .452.452 0 0 0 .904 0zm-4.819-1.333a8.857 8.857 0 0 1 1.705.314 2.08 2.08 0 0 1-.454-1.426c-.265.507-.71.906-1.251 1.112zm-3.361.309a8.836 8.836 0 0 1 1.687-.309 2.364 2.364 0 0 1-1.235-1.084l.002.094c0 .491-.17.943-.454 1.299zm.88-2.51a1.644 1.644 0 1 0 3.288 0 1.644 1.644 0 0 0-3.288 0zm-1.442 4.813a21.223 21.223 0 0 1 5.895-.036c.358.044.713.097 1.065.157l.314-.712a1.183 1.183 0 0 1-.182-.442.809.809 0 0 1-.029-.227c0-.159.03-.311.086-.45a1.29 1.29 0 0 1 .561-.619l.033-.012a.991.991 0 0 1 .106-.045 1.351 1.351 0 1 0-1.299-.067l-.254.704-.119.307a8.705 8.705 0 0 0-3.091-.563 8.684 8.684 0 0 0-3.084.562l-.111-.306-.105-.292-.149-.412a1.35 1.35 0 1 0-1.299.067.975.975 0 0 1 .105.045l.033.012a1.212 1.212 0 0 1 .41 1.778l.301.677a21.5 21.5 0 0 1 .813-.126zm-6.55 2.109a20.84 20.84 0 0 1 5.097-1.843l-.183-.41a1.207 1.207 0 0 1-1.655-1.116c0-.44.236-.825.588-1.035a2.09 2.09 0 1 1 3.441-2.348 2.356 2.356 0 0 1 1.275-2.266c.153-.396.4-.7.698-.843v-.741h.78v.762c.293.161.551.48.705.84a2.355 2.355 0 0 1 1.236 2.276 2.09 2.09 0 1 1 3.457 2.32 1.204 1.204 0 0 1-1.103 2.135l-.188.425a20.82 20.82 0 0 1 5.104 1.843l-.295.57a20.235 20.235 0 0 0-6.197-2.02 22.193 22.193 0 0 0-3.123-.224c-1.159 0-2.252.091-3.37.261a20.193 20.193 0 0 0-5.972 1.984l-.295-.57zm13.602 5.503l-.051 3.062a62.124 62.124 0 0 0 .026 3.105h-.908a55.853 55.853 0 0 0-1.252-2.021l-3.858-6.047.052 7.693 1.379.012v.363c-.562-.013-1.137-.012-1.699-.012-.485 0-.983-.001-1.469.012v-.363l1.277-.012c-.012-.243-.012-.485-.012-.728 0-1.046-.013-2.092-.013-3.138 0-1.441.013-2.87.051-4.299-.192-.077-.255-.089-.6-.102l-.703-.013v-.363c.537.013 1.265.012 1.955.012.715 0 .945.001 1.456-.012.358.58.818 1.32 1.086 1.741l2.759 4.363.077-5.728-1.431-.013v-.363c.537.013 1.073.012 1.61.012h.615l.826-.008.181-.004c2.051.014 4.15.014 6.07-.051 0 .421 0 .651.025 1.175l.077 1.316-.383.064c-.281-1.648-.741-2.057-2.862-2.057l-.702.013-.039 3.64.498-.025c1.099-.077 1.367-.46 1.457-1.635h.383c-.038.434-.064.856-.064 2.376 0 .231 0 .768.026 1.293h-.384c-.14-1.241-.178-1.51-1.456-1.613l-.46-.025.051 4.062h.652c1.239-.012 1.903-.025 2.453-.383.651-.434.741-1.099.868-2.029l.409.013-.102 1.318a37.452 37.452 0 0 1-.089 1.341c-.026.201-.052.238-.46.238-.103 0-.588-.012-.69-.012-1.457-.013-2.913-.026-4.369-.026-.677 0-1.342.013-2.006.026v-.364l1.29-.013v-8.241l-1.2-.012-.283-.013c-.013.357-.064 2.092-.064 2.475zm-12.616 1.62c.741 0 1.43 0 1.967.446.102.089.651.573.651 1.54 0 .854-.344 1.44-.715 1.733-.588.471-1.444.446-1.929.42.013-.535.013-.828.026-2.216v-1.923zm-.026-3.845c-.013-.23-.013-.307.677-.307.307 0 1.035.013 1.444.741.166.294.23.651.23 1.009 0 .677-.243 1.239-.562 1.546-.499.473-1.176.473-1.763.46l-.026-3.449zm-.843-.614a49.9 49.9 0 0 1-2.402-.012v.351l1.227.038c.038.602.038.794.063 2.47v3.611c0 1.414-.012 1.656-.038 2.14l-1.277.026-.013.383c1.316-.026 1.469-.026 2.389-.026h.869c.357.013.817.026 1.175.026.651 0 2.235 0 3.079-1.262.242-.37.395-.815.395-1.261 0-1.414-1.149-2.051-2.695-2.191-.192-.026-.396-.038-.6-.051l.575-.077c.434-.077 1.494-.243 2.044-1.137.178-.307.281-.677.281-1.047 0-.895-.524-1.482-1.086-1.763-.384-.192-.882-.294-1.687-.294-.344 0-.932.025-1.52.051l-.779.025zm1.13-23.129a.698.698 0 0 1 .249.552c0 .546-.449.751-.945.751h-.637V1.459h1.333zm.644 1.303h.412V1.459H4.72v1.303zm2.231-1.303a.698.698 0 0 1 .249.552c0 .546-.449.751-.945.751h-.637V1.459h1.333zm1.05 0v.91h.674v.393H7.589V1.459h.412zm.94 1.303h.412V1.459h-.412v1.303zm1.186-1.303v.011a.94.94 0 0 0 .932.941.94.94 0 0 0 .932-.941v-.015l.411.004.001.014c0 .743-.61 1.331-1.344 1.331a1.338 1.338 0 0 1-1.344-1.331v-.021l.412.007zm3.011 1.303h.412V1.459h-.412v1.303zm2.655-1.303v.09h-.966v.82h.995v.393h-1.407V1.459h1.378zm.755 0v.011c0 .502.415.941.922.941.352 0 .578-.191.809-.423v.542a1.342 1.342 0 0 1-.799.274c-.728 0-1.344-.591-1.344-1.324v-.028l.412.007zm2.926 0l-.093.216h.616l-.09-.216h.439l.559 1.303h-.454l-.289-.694h-.95l-.295.694h-.452l.574-1.303h.435zm-13.277.168H6.03v.742h.203c.308 0 .555-.074.555-.377 0-.305-.28-.365-.591-.365zm-2.875 0h-.167v.742h.203c.308 0 .555-.074.555-.377 0-.305-.28-.365-.591-.365zm13.906 1.792h.412V5.61h.674v.393h-1.086V3.419zm-1.744 1.498h.616l-.304-.73-.312.73zm1.07 1.086l-.288-.694h-.951l-.295.694h-.452l1.236-2.806 1.204 2.806h-.454zm-4.126 0h-.412V3.211l1.906 1.997V3.419h.412v2.798l-1.906-1.993v1.779zm-1.2-1.292a.934.934 0 0 0-.932-.941.933.933 0 0 0-.931.941.94.94 0 0 0 .931.942.94.94 0 0 0 .932-.942zm-2.275.003a1.345 1.345 0 0 1 2.687 0c0 .744-.609 1.331-1.344 1.331a1.336 1.336 0 0 1-1.343-1.331zm-.775 1.289h.412V3.419h-.412v2.584zM6.922 3.377c.31 0 .552.091.799.275v.545c-.235-.244-.451-.427-.815-.427-.503 0-.915.439-.915.941s.414.942.922.942c.352 0 .577-.192.808-.423v.541a1.333 1.333 0 0 1-.799.274c-.727 0-1.344-.591-1.344-1.324 0-.739.606-1.344 1.344-1.344zm-2.947 1.54h.616l-.305-.73-.311.73zm1.069 1.086l-.288-.694h-.951l-.295.694h-.452l1.236-2.806 1.204 2.806h-.454zm-4.126 0H.506V3.211l1.906 1.997V3.419h.412v2.798L.918 4.224v1.779zm21.963 2.155h.615l-.304-.729-.311.729zm1.069 1.086l-.288-.693h-.951l-.295.693h-.452L23.2 6.439l1.204 2.805h-.454zm-3.676-2.87c-.03.034-.068.128-.085.166l-.276-.22c.093-.162.199-.343.421-.343.113 0 .211.041.291.08.04.018.135.069.179.069.072 0 .133-.142.16-.193l.258.209c-.075.183-.203.354-.428.354a.667.667 0 0 1-.272-.081c-.055-.024-.137-.065-.198-.065a.062.062 0 0 0-.05.024zm-.45 2.87h-.412V6.452l1.906 1.997V6.661h.412v2.798l-1.906-1.994v1.779zm-2.172-1.086h.616l-.304-.729-.312.729zm1.07 1.086l-.289-.693h-.95l-.295.693h-.452l1.236-2.805 1.204 2.805h-.454zm-3.039-2.191h-.031v.729h.112c.293 0 .488-.084.488-.371 0-.323-.238-.358-.569-.358zm.097 1.122h-.128v1.069h-.412V6.661h.472c.209 0 .448.005.646.142a.743.743 0 0 1 .306.615.76.76 0 0 1-.259.579c-.185.152-.417.178-.625.178zm-1.718-1.556c.346 0 .568.182.725.472l-.334.214c-.098-.171-.175-.294-.397-.294-.186 0-.336.131-.336.309 0 .173.21.26.342.319l.161.071c.318.14.629.315.629.751a.824.824 0 0 1-.838.825c-.478 0-.754-.313-.844-.751l.406-.114c.034.238.145.473.431.473.23 0 .433-.176.433-.407 0-.251-.22-.335-.409-.422L13.882 8c-.285-.129-.573-.292-.573-.689 0-.428.362-.692.753-.692zm-1.216 2.625h-1.408V6.661h1.408v.392h-.996v.587h.966v.392h-.966v.82h.996v.392zm-2.988 0H8.451V6.661h1.407v.392h-.995v.587h.966v.392h-.966v.82h.995v.392zM6.536 7.053v1.799h.128c.291 0 .519-.041.723-.234a.898.898 0 0 0 .283-.666c0-.261-.1-.51-.294-.68-.205-.181-.43-.219-.712-.219h-.128zm.111 2.191h-.523V6.661h.53c.373 0 .691.049.998.312.297.255.43.602.43.983 0 .375-.137.709-.422.963-.31.275-.623.325-1.013.325z"/><path d="M2.743 1.459V.178h.472c.457 0 .887.172.887.731a.628.628 0 0 1-.17.451.667.667 0 0 1 .144.092l-1.333.007zm1.977 0h.412V.178H4.72v1.281zm.898 0V.178h.472c.457 0 .887.172.887.731a.625.625 0 0 1-.171.451.65.65 0 0 1 .145.092l-1.333.007zm1.971 0h.412V.178h-.412v1.281zm1.352 0h.412V.178h-.412v1.281zm.774 0a1.344 1.344 0 0 1 2.687-.007l-.411.007a.936.936 0 0 0-.932-.931.935.935 0 0 0-.932.927l-.412.004zm3.423 0V.57h-.59V.178h1.599V.57h-.597v.889h-.412zm1.277 0V.178h1.407V.57h-.995v.587h.966v.302h-1.378zm1.721 0A1.35 1.35 0 0 1 17.48.136c.309 0 .552.09.799.275v.544c-.235-.243-.451-.427-.815-.427-.499 0-.908.431-.916.928l-.412.003zm2.903 0l.662-1.503.645 1.503h-.439l-.214-.513-.219.513h-.435zM6.067.57H6.03v.684h.034c.313 0 .501-.036.501-.345 0-.3-.161-.339-.498-.339zm-2.875 0h-.037v.684h.034c.313 0 .501-.036.501-.345 0-.3-.161-.339-.498-.339z"/></g></svg>