<svg xmlns="http://www.w3.org/2000/svg" width="99" height="88" viewBox="0 0 260 260"><g xmlns="http://www.w3.org/2000/svg" fill="none" fill-rule="evenodd"><g transform="translate(10 155)"><path fill="#FFF" d="M41.1532 50h-3.4V18.92h3.4z"></path><ellipse stroke="#FFF" stroke-width="6.5" opacity=".7605" cx="40.1954" cy="37.5315" rx="40.1954" ry="36.9556"></ellipse></g><g transform="translate(90.3908 155)"><path d="M30.688 40.8c0-1.2267.2332-2.38.7-3.46.4666-1.08 1.1-2.0267 1.9-2.84.8-.8133 1.7266-1.46 2.78-1.94 1.0533-.48 2.18-.72 3.38-.72.8 0 1.5332.1 2.2.3.6666.2 1.24.4467 1.72.74s.8666.6 1.16.92c.2932.32.4932.6.6.84l.16-2.36h3.28V49h-3.44v-2.12c-.1334.2133-.3468.4667-.64.76-.2934.2933-.6734.5667-1.14.82-.4668.2533-1.02.4733-1.66.66-.64.1867-1.3734.28-2.2.28-1.28 0-2.46-.2333-3.54-.7-1.08-.4667-2.0068-1.0933-2.78-1.88-.7734-.7867-1.38-1.7-1.82-2.74-.44-1.04-.66-2.1333-.66-3.28zm3.44-.2c0 .7733.14 1.4933.42 2.16.28.6667.66 1.24 1.14 1.72.48.48 1.0532.86 1.72 1.14.6666.28 1.4.42 2.2.42.8 0 1.54-.14 2.22-.42.68-.28 1.2666-.6667 1.76-1.16.4932-.4933.8732-1.0667 1.14-1.72.2666-.6533.4-1.3667.4-2.14 0-.7733-.1334-1.4867-.4-2.14-.2668-.6533-.6468-1.22-1.14-1.7-.4934-.48-1.08-.86-1.76-1.14-.68-.28-1.42-.42-2.22-.42-.8 0-1.5334.14-2.2.42-.6668.28-1.24.66-1.72 1.14-.48.48-.86 1.0467-1.14 1.7-.28.6533-.42 1.3667-.42 2.14z" fill="#FFF"></path><ellipse stroke="#898989" stroke-width="6.5" cx="40.2079" cy="36.9671" rx="40.2079" ry="36.9671"></ellipse></g><g transform="translate(170.7815 155)"><path d="M51.48 40.68c0 1.2533-.2133 2.4133-.64 3.48s-1.0267 1.9867-1.8 2.76c-.7733.7733-1.7 1.38-2.78 1.82-1.08.44-2.26.66-3.54.66-.6667 0-1.3-.0733-1.9-.22-.6-.1467-1.1533-.3467-1.66-.6-.5067-.2533-.9467-.5333-1.32-.84-.3733-.3067-.6533-.62-.84-.94 0 .1333.0067.2733.02.42s.02.2867.02.42V49H33.6V17.92h3.44v16.8c.2133-.32.5-.6467.86-.98.36-.3333.7867-.64 1.28-.92.4933-.28 1.0467-.5133 1.66-.7.6133-.1867 1.2933-.28 2.04-.28 1.28 0 2.4467.2067 3.5.62 1.0533.4133 1.96 1 2.72 1.76.76.76 1.3467 1.6867 1.76 2.78.4133 1.0933.62 2.32.62 3.68zm-3.72-.08c0-.7733-.12-1.4867-.36-2.14-.24-.6533-.5867-1.22-1.04-1.7-.4533-.48-1-.86-1.64-1.14-.64-.28-1.36-.42-2.16-.42s-1.54.14-2.22.42c-.68.28-1.26.66-1.74 1.14-.48.48-.86 1.0467-1.14 1.7-.28.6533-.42 1.3667-.42 2.14 0 .7733.14 1.4933.42 2.16.28.6667.66 1.24 1.14 1.72.48.48 1.06.86 1.74 1.14.68.28 1.42.42 2.22.42.8 0 1.52-.14 2.16-.42.64-.28 1.1867-.6667 1.64-1.16.4533-.4933.8-1.0667 1.04-1.72s.36-1.3667.36-2.14z" fill="#FFF"></path><ellipse stroke="#FBCD20" stroke-width="6.5" opacity=".8" cx="40.1954" cy="37.5315" rx="40.1954" ry="36.9556"></ellipse></g><path d="M106.595 119.22v6.42h2.94c1.08 0 1.89-.32 2.43-.96.54-.64.81-1.42.81-2.34 0-1.08-.325-1.87-.975-2.37-.65-.5-1.515-.75-2.595-.75h-2.61zm0 9.21v6.6h3.06c.58 0 1.125-.07 1.635-.21.51-.14.955-.345 1.335-.615s.68-.615.9-1.035c.22-.42.33-.91.33-1.47 0-.62-.13-1.135-.39-1.545-.26-.41-.605-.745-1.035-1.005-.43-.26-.92-.445-1.47-.555-.55-.11-1.115-.165-1.695-.165h-2.67zm-3.3 9.57v-21.75h5.76c1.06 0 2.02.105 2.88.315.86.21 1.59.54 2.19.99.6.45 1.065 1.03 1.395 1.74.33.71.495 1.575.495 2.595 0 .56-.055 1.11-.165 1.65-.11.54-.29 1.035-.54 1.485-.25.45-.58.845-.99 1.185-.41.34-.915.6-1.515.78.52.1 1.035.27 1.545.51s.965.565 1.365.975c.4.41.725.915.975 1.515.25.6.375 1.31.375 2.13 0 1.04-.2 1.93-.6 2.67-.4.74-.93 1.35-1.59 1.83s-1.42.83-2.28 1.05c-.86.22-1.75.33-2.67.33h-6.63zm36.9-21.75v22.74c-.28-.36-.82-.94-1.62-1.74l-2.76-2.76c-1.04-1.04-2.145-2.13-3.315-3.27-1.17-1.14-2.275-2.225-3.315-3.255-1.04-1.03-1.95-1.95-2.73-2.76-.78-.81-1.3-1.385-1.56-1.725l-.57-.78.09.96V138h-3.3v-22.77c.22.28.585.68 1.095 1.2.51.52 1.11 1.125 1.8 1.815s1.45 1.435 2.28 2.235c.83.8 1.67 1.61 2.52 2.43.85.82 1.69 1.625 2.52 2.415.83.79 1.59 1.525 2.28 2.205.69.68 1.285 1.28 1.785 1.8s.85.91 1.05 1.17l.57.84-.09-1.02v-14.07h3.27zm5.34 21.75v-21.75h14.28v2.97h-10.98v6.36h9.78v3.03h-9.78v6.36h11.4V138h-14.7z" fill="#FFF" opacity=".7989"></path><path d="M85.9567 84.6498c0 2.0589 1.6158 3.7291 3.6076 3.7291 1.9998 0 3.6156-1.6702 3.6156-3.7291 0-2.0672-1.6158-3.7374-3.6156-3.7374-1.9918 0-3.6076 1.6702-3.6076 3.7374zm90.3666 0c0-2.0672-1.6238-3.7374-3.6156-3.7374-1.9918 0-3.6077 1.6702-3.6077 3.7374 0 2.0589 1.6159 3.7291 3.6077 3.7291s3.6156-1.6702 3.6156-3.7291zm-38.548-11.022c4.7435.4216 9.255 1.2898 13.6386 2.5963-2.2878-2.952-3.6556-6.7059-3.6556-10.7823 0-.339.008-.678.024-1.0088-2.1198 4.1922-5.6795 7.4914-10.007 9.1947zm-26.8852 2.555c4.3355-1.2817 8.807-2.1416 13.4946-2.555-4.2396-1.6703-7.7432-4.8786-9.879-8.9633.008.2564.016.5127.016.7773 0 4.0599-1.3598 7.7973-3.6316 10.741zm7.0393-20.7543c0 7.508 5.8873 13.5936 13.1506 13.5936 7.2712 0 13.1586-6.0857 13.1586-13.5936s-5.8874-13.5936-13.1586-13.5936c-7.2633 0-13.1506 6.0857-13.1506 13.5936zm-11.5348 40.0614c8.0311-1.2234 16.2463-1.8558 24.6054-1.8558 7.6472 0 15.1744.5326 22.5497 1.5562 2.8637.3662 5.7034.8072 8.519 1.3066l2.5118-5.9253c-.712-1.0902-1.2079-2.3385-1.4558-3.6784-.176-.6408-.232-1.2566-.232-1.889 0-1.3233.24-2.5882.688-3.745.9038-2.1803 2.4877-4.0112 4.4874-5.1513l.264-.0999c.272-.1414.56-.2663.848-.3745 3.5996-1.8225 6.0953-5.6756 6.0953-10.1195 0-6.2083-4.8395-11.2431-10.8069-11.2431-5.9674 0-10.8069 5.0348-10.8069 11.243 0 4.0362 2.0478 7.5814 5.1275 9.562l-2.0318 5.8588-.9519 2.5548c-7.6872-3.0292-16.0143-4.6853-24.7254-4.6853-8.6951 0-17.0062 1.6561-24.6694 4.677l-.888-2.5465-.8399-2.43-1.1918-3.4287c3.0716-1.9807 5.1194-5.5259 5.1194-9.562 0-6.2083-4.8315-11.2431-10.7989-11.2431-5.9753 0-10.8068 5.0348-10.8068 11.243 0 4.444 2.4877 8.2971 6.0953 10.1196.288.1082.568.233.84.3745l.264.0999c1.9997 1.1318 3.5756 2.946 4.4235 5.1347.448 1.165.6959 2.43.6959 3.7615 0 .6242-.056 1.24-.16 1.8309-.264 1.498-.8559 2.8794-1.6798 4.0695l2.4077 5.634a165.7907 165.7907 0 0 1 6.5034-1.0486zM54 113.255c12.7347-6.851 26.4053-12.0537 40.7718-15.3418l-1.4639-3.413a9.3281 9.3281 0 0 1-3.6076.7242c-5.3195 0-9.631-4.4869-9.631-10.0142 0-3.6628 1.8878-6.8677 4.7035-8.6158-2.2958-2.9801-3.6796-6.7594-3.6796-10.88 0-9.6063 7.4872-17.3896 16.7182-17.3896 6.1914 0 11.5988 3.5046 14.4865 8.724a20.7217 20.7217 0 0 1-.048-1.4152c0-7.6085 4.1676-14.193 10.247-17.4479 1.2239-3.2964 3.1997-5.827 5.5834-7.0174V25h6.2394v6.3432c2.3437 1.3402 4.4075 3.9957 5.6394 6.9925 5.9194 3.2964 9.951 9.806 9.951 17.298 0 .5578-.016 1.1072-.064 1.6483 2.8556-5.3443 8.335-8.957 14.6224-8.957 9.231 0 16.7103 7.7832 16.7103 17.3896 0 4.1205-1.3759 7.8998-3.6796 10.88 2.8157 1.748 4.7035 4.953 4.7035 8.6157 0 5.5273-4.3116 10.0142-9.623 10.0142-1.3919 0-2.7117-.308-3.9036-.8574l-1.5039 3.5378c14.3905 3.2798 28.0851 8.491 40.8278 15.3419l-2.3598 4.7449c-15.2704-8.2079-31.9486-13.9767-49.5708-16.8153-8.2631-1.207-16.4063-1.8646-24.9814-1.8646-9.271 0-18.0141.7575-26.9572 2.1726-16.9502 2.9219-33.0126 8.5825-47.771 16.5156L54 113.2551z" fill="#FFFFFE" opacity=".8"></path></g></svg>