<svg xmlns="http://www.w3.org/2000/svg" xmlns:xlink="http://www.w3.org/1999/xlink" width="105" height="33" viewBox="0 0 86 29"><defs><path id="a" d="M.134.872h44.327v26.742H.134z"/></defs><g fill="none" fill-rule="evenodd"><mask id="b" fill="#fff"><use xlink:href="#a"/></mask><path d="M11.473 8.645c-.761-.506-1.706-.801-3.237-.801-1.891 0-3.492.941-4.363 2.208V8.248H.13v18.974h3.743V16.377c0-3.22 1.381-4.883 3.748-4.883.734 0 1.332.093 1.865.255.443-1.056.976-1.812 1.987-3.104m15.219 8.707c0-5.136-2.617-9.508-8.036-9.508-4.948 0-8.362 3.465-8.362 9.905 0 6.29 3.779 9.861 8.252 9.861 2.908 0 4.909-.897 6.58-2.485l-2.216-2.389c-1.272.942-2.543 1.523-4.144 1.523-2.327 0-4.398-1.558-4.803-5.208h12.615c.035-.396.114-1.012.114-1.699M22.91 15.98h-8.876c.334-3.035 1.855-4.772 4.367-4.772 3.092 0 4.323 2.169 4.509 4.772m21.551 11.239V.867L40.758 2.79v7.227c-1.055-1.153-2.872-2.169-4.799-2.169-3.962 0-7.53 3.07-7.53 9.576 0 7.226 3.238 10.19 7.341 10.19 2.006 0 3.608-.936 4.988-2.203v1.808h3.703zm-3.668-5.459c-.976 1.232-2.542 2.42-4.328 2.42-2.762 0-4.288-2.094-4.288-6.863 0-4.01 1.451-6.039 4.148-6.039 1.883 0 3.633 1.377 4.468 2.495v7.987z" fill="#FFF" mask="url(#b)"/><path d="M69.871 17.352c0-5.136-2.617-9.508-8.035-9.508-4.943 0-8.365 3.465-8.365 9.905 0 6.29 3.781 9.861 8.256 9.861 2.906 0 4.908-.897 6.584-2.485l-2.217-2.389c-1.275.942-2.547 1.523-4.152 1.523-2.319 0-4.399-1.558-4.796-5.208h12.616c.035-.396.109-1.012.109-1.699m-3.777-1.372h-8.877c.326-3.035 1.857-4.772 4.363-4.772 3.092 0 4.328 2.169 4.514 4.772m19.076 6.036c0-3.582-2.182-4.734-6.435-6.361-2.874-1.126-3.528-1.812-3.528-2.745 0-1.016.801-1.737 2.617-1.737 1.817 0 3.383.541 4.944 1.628l1.64-2.855c-1.711-1.231-4.072-2.102-6.478-2.102-3.815 0-6.506 1.776-6.506 5.168 0 3.004 1.492 4.377 5.6 5.968 2.761 1.047 4.437 1.734 4.437 3.176 0 1.342-1.125 2.103-3.492 2.103-1.781 0-3.783-.652-5.565-1.883l-1.705 2.815c1.926 1.411 4.723 2.423 7.309 2.423 3.744 0 7.162-1.407 7.162-5.598" fill="#FFF"/><path d="M46.555 24.905a3.178 3.178 0 0 1 3.193-3.172 3.177 3.177 0 0 1 3.186 3.172 3.176 3.176 0 0 1-3.186 3.171 3.177 3.177 0 0 1-3.193-3.171" fill="#D91D49"/></g></svg>